# xmcd
#
# Track frame offsets:
#	150
#	18319
#	32493
#	49285
#	67558
#	82468
#	100440
#	115954
#	131988
#	150963
#	169732
#	183974
#	200306
#	216301
#
# Disc length: 3100 seconds
#
# Revision: 1
# Processed by: cddbd v1.5.2PL0 Copyright (c) Steve Scherf et al.
# Submitted via: audiograbber 1.83.01
#
DISCID=be0c1a0e
DTITLE=Maria Voskania - Magie
DYEAR=2017
DGENRE=Schlager
TTITLE0=Ich seh nur dich
TTITLE1=Magie
TTITLE2=Unendlich frei
TTITLE3=Küss mich
TTITLE4=4 Flügel 2 Herzen
TTITLE5=Es lebe das Leben
TTITLE6=Freier Fall
TTITLE7=Einmal zu oft
TTITLE8=Sternenklar
TTITLE9=Hiergefühl
TTITLE10=Wahre Liebe
TTITLE11=Halbes Herz
TTITLE12=Frei wie Du
TTITLE13=Tag für Tag
EXTD=
EXTT0=
EXTT1=
EXTT2=
EXTT3=
EXTT4=
EXTT5=
EXTT6=
EXTT7=
EXTT8=
EXTT9=
EXTT10=
EXTT11=
EXTT12=
EXTT13=
PLAYORDER=
